/* XPM */
static char *result[] = {
/* columns rows colors chars-per-pixel */
"80 80 168 2 ",
"   c #3D0C06",
".  c #370E08",
"X  c #380D08",
"o  c #321109",
"O  c #3D130B",
"+  c #281F11",
"@  c #3D1D10",
"#  c #292012",
"$  c #382315",
"%  c #322A1E",
"&  c #3A2D19",
"*  c #372517",
"=  c #3F341F",
"-  c #362D20",
";  c #333724",
":  c #363928",
">  c #3B3F2B",
",  c #333824",
"<  c #393E32",
"1  c #470704",
"2  c #4B0503",
"3  c #430905",
"4  c #4E0A05",
"5  c #450E08",
"6  c #560000",
"7  c #5C0101",
"8  c #530C06",
"9  c #590906",
"0  c #44130B",
"q  c #401A0E",
"w  c #650000",
"e  c #6B0000",
"r  c #6D0905",
"t  c #730000",
"y  c #7B0000",
"u  c #730804",
"i  c #730D08",
"p  c #7D0A06",
"a  c #721F12",
"s  c #7E1B11",
"d  c #552114",
"f  c #5F281A",
"g  c #44341D",
"h  c #4E311D",
"j  c #50351F",
"k  c #722114",
"l  c #4A3720",
"z  c #463927",
"x  c #4C3C21",
"c  c #413525",
"v  c #513E24",
"b  c #6B3120",
"n  c #7C3724",
"m  c #3E402A",
"M  c #4F4127",
"N  c #42412C",
"B  c #554126",
"V  c #564328",
"C  c #5B462B",
"Z  c #5E482D",
"A  c #4C4435",
"S  c #4F4A3A",
"D  c #4D453B",
"F  c #594C3C",
"G  c #67412A",
"H  c #614B2F",
"J  c #654D31",
"K  c #694F32",
"L  c #6C5234",
"P  c #6A5339",
"I  c #725536",
"U  c #755738",
"Y  c #7A5638",
"T  c #755939",
"R  c #7C5D3C",
"E  c #7F603E",
"W  c #494642",
"Q  c #564F46",
"!  c #5A4F43",
"~  c #830000",
"^  c #8C0000",
"/  c #850A06",
"(  c #8C0804",
")  c #810D08",
"_  c #880E09",
"`  c #930100",
"'  c #9C0000",
"]  c #920804",
"[  c #9C100B",
"{  c #821F13",
"}  c #A30000",
"|  c #AB0000",
" . c #AB0906",
".. c #A20F0A",
"X. c #B30000",
"o. c #BB0000",
"O. c #B20B07",
"+. c #B40D08",
"@. c #A5110B",
"#. c #972A1B",
"$. c #9F2A1B",
"%. c #A42C1C",
"&. c #8F3822",
"*. c #823925",
"=. c #923B25",
"-. c #A53220",
";. c #AC3B24",
":. c #B13A23",
">. c #C30000",
",. c #CB0000",
"<. c #D10000",
"1. c #8E462E",
"2. c #845638",
"3. c #895638",
"4. c #835D3C",
"5. c #AC442B",
"6. c #B9472E",
"7. c #BB492F",
"8. c #B4432A",
"9. c #85623E",
"0. c #8C633E",
"q. c #93663F",
"w. c #C04C33",
"e. c #856441",
"r. c #8A6541",
"t. c #8C6944",
"y. c #916640",
"u. c #936A44",
"i. c #9B6C43",
"p. c #A16F45",
"a. c #A47146",
"s. c #AD7246",
"d. c #A2744B",
"f. c #AD784E",
"g. c #A9764B",
"h. c #B57546",
"j. c #B97646",
"k. c #BB7847",
"l. c #B37649",
"z. c #B97748",
"x. c #B6784B",
"c. c #BC7949",
"v. c #B67C50",
"b. c #C27D4D",
"n. c #C5804F",
"m. c #C68050",
"M. c #CA8453",
"N. c #CF8857",
"B. c #CD8B5D",
"V. c #D48B5A",
"C. c #D98E5D",
"Z. c #DB905F",
"A. c #D29267",
"S. c #DD9261",
"D. c #DF9769",
"F. c #DF9A6C",
"G. c #D3946A",
"H. c #E19564",
"J. c #E1996A",
"K. c #E2A37A",
"L. c #E2A781",
"P. c #E2AF8D",
"I. c #E2AA85",
"U. c #E3B292",
"Y. c #E3C1AC",
"T. c #E4C8B5",
"R. c #E4CBBB",
"E. c None",
/* pixels */
"E.E.E.E.E.E.E.E.E.E.E.E.E.E.E.E.E.E.E.E.E.E.* g I e.r.4.e.t.t.e.x.x.b.N.H.H.J.U.R.R.P.J.H.S.S.S.S.V.j.j.h.h.j.4.9.L B & + E.E.E.E.E.E.E.E.E.E.E.E.E.E.E.E.E.E.E.",
"E.E.E.E.E.E.E.E.E.E.E.E.E.E.E.E.E.E.E.E.E.E.@ j L 9.2.*.R E t.E v.c.c.m.N.S.J.I.Y.Y.L.H.C.V.M.N.M.M.j.h.s.l.j.4.e.I B = + E.E.E.E.E.E.E.E.E.E.E.E.E.E.E.E.E.E.E.",
"E.E.E.E.E.E.E.E.E.E.E.E.E.E.E.E.E.E.E.E.E.E.q h L e.3.=.E R t.e.s.z.z.z.b.C.J.K.P.P.K.H.C.M.M.m.b.m.k.j.s.l.h.4.e.L M & + E.E.E.E.E.E.E.E.E.E.E.E.E.E.E.E.E.E.E.",
"E.E.E.E.E.E.E.E.E.E.E.E.E.E.E.E.E.E.E.E.E.E.- c J R R e.T e.t.e.s.z.z.b.M.C.J.U.T.T.U.D.S.C.C.M.N.V.b.m.h.h.h.4.e.K z % % E.E.E.E.E.E.E.E.E.E.E.E.E.E.E.E.E.E.E.",
"E.E.E.E.E.E.E.E.E.E.E.E.E.E.E.E.E.E.E.E.E.E.E.E.E.L I U L T Y U u.u.i.p.v.M.M.G.L.L.A.m.V.M.m.x.g.d.d.d.i.0.i.P F E.E.E.E.E.E.E.E.E.E.E.E.E.E.E.E.E.E.E.E.E.E.E.",
"E.E.E.E.E.E.E.E.E.E.E.E.E.E.E.E.E.E.E.E.E.E.E.E.E.G L L L n 1.Y e.t.u.i.f.B.S.M.H.H.D.b.k.z.z.s.a.s.t.t.t.t.t.Q W E.E.E.E.E.E.E.E.E.E.E.E.E.E.E.E.E.E.E.E.E.E.E.",
"E.E.E.E.E.E.E.E.E.E.E.E.E.E.E.E.E.E.E.E.E.E.E.E.E.C J T K K I K q.t.u.p.v.b.b.C.H.H.M.N.M.z.s.s.a.u.r.r.e.E q.! W E.E.E.E.E.E.E.E.E.E.E.E.E.E.E.E.E.E.E.E.E.E.E.",
"E.E.E.E.E.E.E.E.E.E.E.E.E.E.E.E.E.E.E.E.E.E.E.E.E.l V H C J H H Y R 4.u.a.z.x.N.H.D.M.c.z.a.i.i.u.e.T U L K L F W E.E.E.E.E.E.E.E.E.E.E.E.E.E.E.E.E.E.E.E.E.E.E.",
"E.E.E.E.E.E.E.E.E.E.E.E.E.E.E.E.E.E.E.E.E.E.E.E.E.g B C C J L Z R R 4.r.p.s.c.M.H.H.M.k.h.i.i.i.t.e.I I J J J ! D E.E.E.E.E.E.E.E.E.E.E.E.E.E.E.E.E.E.E.E.E.E.E.",
"E.E.E.E.E.E.E.E.E.E.E.E.E.E.E.E.E.E.E.E.E.E.E.E.E.g x V V C C C U R 4.y.p.h.c.M.Z.Z.M.k.h.p.p.p.t.e.I L J Z J S N E.E.E.E.E.E.E.E.E.E.E.E.E.E.E.E.E.E.E.E.E.E.E.",
"E.E.E.E.E.E.E.E.E.E.E.E.E.E.E.E.E.E.E.E.E.E.E.E.E.g x V x B C B T T Y y.p.s.c.M.S.S.b.c.j.s.s.i.r.E J L J C Z A N E.E.E.E.E.E.E.E.E.E.E.E.E.E.E.E.E.E.E.E.E.E.E.",
"E.E.E.E.E.E.E.E.E.E.E.E.E.E.E.E.E.E.E.E.E.E.E.E.E.g x B x B C V T I Y r.i.h.b.M.H.H.M.k.h.s.a.i.9.R J J C V V A N E.E.E.E.E.E.E.E.E.E.E.E.E.E.E.E.E.E.E.E.E.E.E.",
"E.E.E.E.E.E.E.E.E.E.E.E.E.E.E.E.E.E.E.E.E.E.E.E.E.g v x x B C C J L U r.i.h.c.M.H.H.M.k.h.p.p.q.0.E J K B x x A > E.E.E.E.E.E.E.E.E.E.E.E.E.E.E.E.E.E.E.E.E.E.E.",
"E.E.E.E.E.E.E.E.E.E.E.E.E.E.E.E.E.E.E.E.E.E.E.E.E.g x x B B C C J L I r.i.s.c.M.H.H.M.k.j.p.a.i.9.E J J B l x A < E.E.E.E.E.E.E.E.E.E.E.E.E.E.E.E.E.E.E.E.E.E.E.",
"E.E.E.E.E.E.E.E.E.E.E.E.E.E.E.E.E.E.E.E.E.E.E.E.E.g x x B x C C K L U 9.i.s.c.M.H.H.M.c.h.a.a.q.9.E J K V x v N : E.E.E.E.E.E.E.E.E.E.E.E.E.E.E.E.E.E.E.E.E.E.E.",
"E.E.E.E.E.E.E.E.E.E.E.E.E.E.E.E.E.E.E.E.E.E.E.E.E.g v x x B C C J L U r.i.l.c.M.H.H.b.c.h.i.p.i.9.R J J V x V m ; E.E.E.E.E.E.E.E.E.E.E.E.E.E.E.E.E.E.E.E.E.E.E.",
"E.E.E.E.E.E.E.E.E.E.E.E.E.E.E.E.E.E.E.E.E.E.E.E.E.g x x V v C C J L I e.i.s.c.M.H.H.M.z.j.h.s.q.9.R J K B V x > ; E.E.E.E.E.E.E.E.E.E.E.E.E.E.E.E.E.E.E.E.E.E.E.",
"E.E.E.E.E.E.E.E.E.E.E.E.E.E.E.E.E.E.E.E.E.E.E.E.E.g x x v x x x L L U r.p.l.c.M.H.H.m.c.h.p.p.q.9.9.J K V x x > ; E.E.E.E.E.E.E.E.E.E.E.E.E.E.E.E.E.E.E.E.E.E.E.",
"E.E.E.E.E.E.E.E.E.E.E.E.E.E.E.E.E.E.E.E.E.E.E.E.E.= x x M x x x I I T 9.i.s.c.M.H.H.N.m.c.l.h.i.0.E J K V x M z , E.E.E.E.E.E.E.E.E.E.E.E.E.E.E.E.E.E.E.E.E.E.E.",
"E.E.E.E.E.E.E.E.E.E.E.E.E.E.E.E.E.E.E.E.E.E.E.E.E.s { a k a k k #.$.%.-.;.:.:.8.w.w.7.6.5.=.=.=.n b f f d d d * $ E.E.E.E.E.E.E.E.E.E.E.E.E.E.E.E.E.E.E.E.E.E.E.",
"E.E.E.E.E.E.E.E.E.E.E.E.E.E.E.E.E.E.E.E.E.E.E.E.E.} ..] ] ] ] ]  . .O.+.+.+.+...@.@.@.@.[ _ ) i i r 9 9 8 9 8 5 5 E.E.E.E.E.E.E.E.E.E.E.E.E.E.E.E.E.E.E.E.E.E.E.",
"E.E.E.E.E.E.E.E.E.E.E.E.E.E.E.E.E.E.E.E.E.E.E.E.E.} } ' ' ' } ' X.X.| X.| | | | ' ' ' ' ` y ~ ~ t w 6 2 2 6 6 3 3 E.E.E.E.E.E.E.E.E.E.E.E.E.E.E.E.E.E.E.E.E.E.E.",
"E.E.E.E.E.E.E.E.E.E.E.E.E.E.E.E.E.E.E.E.E.E.E.E.E.} ' ' } ' ' ' ,.o.o.o.o.| } X.' } ' ' ` ^ ^ ` y w 6 2 2 6 6   . E.E.E.E.E.E.E.E.E.E.E.E.E.E.E.E.E.E.E.E.E.E.E.",
"E.E.E.E.E.E.E.E.E.E.E.E.E.E.E.E.E.E.E.E.E.E.E.E.E.' ' ' | } ' ' >.<.<.<.,.X.| X.} } ' } ' ` ` y t t 6 6 6 6 6 3 . E.E.E.E.E.E.E.E.E.E.E.E.E.E.E.E.E.E.E.E.E.E.E.",
"E.E.E.E.E.E.E.E.E.E.E.E.E.E.E.E.E.E.E.E.E.E.E.E.E.' } | | } } } >.<.<.<.,.o.o.| } } } ' ' ^ ^ ~ e w 6 7 7 6 6 2 3 E.E.E.E.E.E.E.E.E.E.E.E.E.E.E.E.E.E.E.E.E.E.E.",
"E.E.E.E.E.E.E.E.E.E.E.E.E.E.E.E.E.E.E.E.E.E.E.E.E.' } X.} | | } ,.<.<.<.<.<.,.o.' } ' ' ` ~ ` ~ t e 7 w w 6 6 6 3 E.E.E.E.E.E.E.E.E.E.E.E.E.E.E.E.E.E.E.E.E.E.E.",
"E.E.E.E.E.E.E.E.E.E.E.E.E.E.E.E.E.E.E.E.E.E.E.E.E.' } | ' } | X.,.<.<.<.<.<.<.o.' X.| ' ' ^ ` ^ t t 7 w 7 6 6 2 . E.E.E.E.E.E.E.E.E.E.E.E.E.E.E.E.E.E.E.E.E.E.E.",
"E.E.E.E.E.E.E.E.E.E.E.E.E.E.E.E.E.E.E.E.E.E.E.E.E.' | ,.X.>.o.| ,.,.<.<.<.<.,.o.' ' ' ' ' ^ ^ ^ y w e y 6 6 6 6 2 E.E.E.E.E.E.E.E.E.E.E.E.E.E.E.E.E.E.E.E.E.E.E.",
"E.E.E.E.E.E.E.E.E.E.E.E.E.E.E.E.E.E.E.E.E.E.E.E.E.' | ,.X.o.| } >.<.,.,.,.<.,.o.' ' ' ' ` ` ` ~ y t 7 7 7 6 6 2 1 E.E.E.E.E.E.E.E.E.E.E.E.E.E.E.E.E.E.E.E.E.E.E.",
"E.E.E.E.E.E.E.E.E.E.E.E.E.E.E.E.E.E.E.E.E.E.E.E.E.| X.o.X.o.o.| ,.<.<.<.<.<.,.o.' } } } ` ~ ` ^ e e 7 w w 6 6 3 3 E.E.E.E.E.E.E.E.E.E.E.E.E.E.E.E.E.E.E.E.E.E.E.",
"E.E.E.E.E.E.E.E.E.E.E.E.E.E.E.E.E.E.E.E.E.E.E.E.E.,.>.| o.} o.| >.<.<.<.<.<.,.o.' | } ' ` ~ ^ ~ e e w e 6 6 6 6 2 E.E.E.E.E.E.E.E.E.E.E.E.E.E.E.E.E.E.E.E.E.E.E.",
"E.E.E.E.E.E.E.E.E.E.E.E.E.E.E.E.E.E.E.E.E.E.E.E.E.<.>.} o.X.o.X.,.<.<.<.<.<.,.o.' } } ' ` ^ ` ^ t t w e 6 6 6 6 . E.E.E.E.E.E.E.E.E.E.E.E.E.E.E.E.E.E.E.E.E.E.E.",
"E.E.E.E.E.E.E.E.E.E.E.E.E.E.E.E.E.E.E.E.E.E.E.E.E.<.>.} o.X.X.o.X.X.o.>.,.o.| | ' ' ' ' ^ ~ ^ ~ e w 7 7 6 6 6 6 3 E.E.E.E.E.E.E.E.E.E.E.E.E.E.E.E.E.E.E.E.E.E.E.",
"E.E.E.E.E.E.E.E.E.E.E.E.E.E.E.E.E.E.E.E.E.E.E.E.E.<.>.} X.} X.o.X.| X.>.>.| X.} ' ' ` ^ ^ ~ ` ~ t e 6 6 6 6 6 2 3 E.E.E.E.E.E.E.E.E.E.E.E.E.E.E.E.E.E.E.E.E.E.E.",
"E.E.E.E.E.E.E.E.E.E.E.E.E.E.E.E.E.E.E.E.E.E.E.E.E.,.>.} | | X.o.X.X.o.>.>.X.X.| ' ' ^ ~ ` ` ` ^ y w 6 6 6 6 6 2 3 E.E.E.E.E.E.E.E.E.E.E.E.E.E.E.E.E.E.E.E.E.E.E.",
"E.E.E.E.E.E.E.E.E.E.E.E.E.E.E.E.E.E.E.E.E.E.E.E.E.X.X.X.| X.| o.} } | >.,.>.o.| ' ' ~ ` ^ ^ ^ ^ t 6 6 6 6 6 6 3 3 E.E.E.E.E.E.E.E.E.E.E.E.E.E.E.E.E.E.E.E.E.E.E.",
"E.E.E.E.E.E.E.E.E.E.E.E.E.E.E.E.E.E.E.E.E.E.E.E.E.| | >.| X.| o.} ' ' o.<.,.>.o.' ' ~ ' ^ ~ ` ~ w 6 6 6 6 6 6 3 3 E.E.E.E.E.E.E.E.E.E.E.E.E.E.E.E.E.E.E.E.E.E.E.",
"E.E.E.E.E.E.E.E.E.E.E.E.E.E.E.E.E.E.E.E.E.E.E.E.E.>.o.| | X.| o.} ` ` X.>.o.X.X.' ` ^ ` ` ^ ` ~ e 7 6 6 6 6 6 2 3 E.E.E.E.E.E.E.E.E.E.E.E.E.E.E.E.E.E.E.E.E.E.E.",
"E.E.E.E.E.E.E.E.E.E.E.E.E.E.E.E.E.E.E.E.E.E.E.E.E.<.>.} } | | } ' ' } >.>.o.>.' ~ ^ t ' y ~ ~ y y ~ 6 6 6 6 6 X 3 E.E.E.E.E.E.E.E.E.E.E.E.E.E.E.E.E.E.E.E.E.E.E.",
"E.E.E.E.E.E.E.E.E.E.E.E.E.E.E.E.E.E.E.E.E.E.E.E.E.<.>.} o.| } X.} ~ ^ o.>.| | X.' ^ ` ' ` ^ ' ~ w 6 6 6 6 6 6 2 3 E.E.E.E.E.E.E.E.E.E.E.E.E.E.E.E.E.E.E.E.E.E.E.",
"E.E.E.E.E.E.E.E.E.E.E.E.E.E.E.E.E.E.E.E.E.E.E.E.E.<.>.} X.| ' } ' ^ ~ } >.X.o.} ` y ^ ' ` ~ ^ ~ w 6 6 6 6 6 6 3 3 E.E.E.E.E.E.E.E.E.E.E.E.E.E.E.E.E.E.E.E.E.E.E.",
"E.E.E.E.E.E.E.E.E.E.E.E.E.E.E.E.E.E.E.E.E.E.E.E.E.<.,.o.X.o.' X.~ ^ ' X.>.X.o.} ` ` ' ' ' ^ ^ ~ t t 6 6 6 6 6 3 3 E.E.E.E.E.E.E.E.E.E.E.E.E.E.E.E.E.E.E.E.E.E.E.",
"E.E.E.E.E.E.E.E.E.E.E.E.E.E.E.E.E.E.E.E.E.E.E.E.E.X.X.X.} | ' | ^ ^ ` X.>.X.| } ~ ~ ^ ' ' ` ` ~ t e 6 6 6 6 6 2 3 E.E.E.E.E.E.E.E.E.E.E.E.E.E.E.E.E.E.E.E.E.E.E.",
"E.E.E.E.E.E.E.E.E.E.E.E.E.E.E.E.E.E.E.E.E.E.E.E.E.} } } } } X.| t y ~ | ,.o.} ' t t ~ ` ' ' ' ^ w 7 6 6 6 6 6 3 3 E.E.E.E.E.E.E.E.E.E.E.E.E.E.E.E.E.E.E.E.E.E.E.",
"E.E.E.E.E.E.E.E.E.E.E.E.E.E.E.E.E.E.E.E.E.E.E.E.E.' } | ' ' } X.e e y | ,.X.' ' e w ~ ` ' ' ' ~ w 6 6 6 6 6 6 3 3 E.E.E.E.E.E.E.E.E.E.E.E.E.E.E.E.E.E.E.E.E.E.E.",
"E.E.E.E.E.E.E.E.E.E.E.E.E.E.E.E.E.E.E.E.E.E.E.E.E.' } X.' ' ' | e w t | ,.X.} ' w w ~ ' ' ' ' ~ w 6 6 6 6 6 6 3 3 E.E.E.E.E.E.E.E.E.E.E.E.E.E.E.E.E.E.E.E.E.E.E.",
"E.E.E.E.E.E.E.E.E.E.E.E.E.E.E.E.E.E.E.E.E.E.E.E.E.' } | } ' ' ' e 7 t | ,.o.} ' 7 7 ~ ` ' ' ' ~ 7 6 6 6 6 6 6 3 3 E.E.E.E.E.E.E.E.E.E.E.E.E.E.E.E.E.E.E.E.E.E.E.",
"E.E.E.E.E.E.E.E.E.E.E.E.E.E.E.E.E.E.E.E.E.E.E.E.E.' } X.' ' ' ' t w t | ,.X.' ` w 7 ~ ' ' } ' y 9 6 6 6 6 6 6 2 3 E.E.E.E.E.E.E.E.E.E.E.E.E.E.E.E.E.E.E.E.E.E.E.",
"E.E.E.E.E.E.E.E.E.E.E.E.E.E.E.E.E.E.E.E.E.E.E.E.E.' } X.' } ' ' ~ e t } ,.| ' ^ w e ~ ' ` ` ' ~ 7 6 6 6 6 6 6 2 3 E.E.E.E.E.E.E.E.E.E.E.E.E.E.E.E.E.E.E.E.E.E.E.",
"E.E.E.E.E.E.E.E.E.E.E.E.E.E.E.E.E.E.E.E.E.E.E.E.E.' ' } ' ' ' ' w t y | >.| ' ' e w ~ ' ^ y ^ ~ w 6 6 6 6 6 6 X 3 E.E.E.E.E.E.E.E.E.E.E.E.E.E.E.E.E.E.E.E.E.E.E.",
"E.E.E.E.E.E.E.E.E.E.E.E.E.E.E.E.E.E.E.E.E.E.E.E.E.' } o.' ' ' ' w 6 t | >.} ' ~ 6 6 ~ ` ` ` ` u 4 6 6 6 6 6 6 2 3 E.E.E.E.E.E.E.E.E.E.E.E.E.E.E.E.E.E.E.E.E.E.E.",
"E.E.E.E.E.E.E.E.E.E.E.E.E.E.E.E.E.E.E.E.E.E.E.E.E.' } | ' ' ' ' e 6 e } >.| ' ` 6 6 y ' ` ~ ` u 4 6 6 6 6 6 6 3 3 E.E.E.E.E.E.E.E.E.E.E.E.E.E.E.E.E.E.E.E.E.E.E.",
"E.E.E.E.E.E.E.E.E.E.E.E.E.E.E.E.E.E.E.E.E.E.E.E.E.' } | ' ' ' } w 6 e | >.} ' ` 6 6 ~ ` ` ~ ^ u 4 6 6 6 6 6 6 3 3 E.E.E.E.E.E.E.E.E.E.E.E.E.E.E.E.E.E.E.E.E.E.E.",
"E.E.E.E.E.E.E.E.E.E.E.E.E.E.E.E.E.E.E.E.E.E.E.E.E.' } X.} ' ' ' w 7 e | >.| } ` 6 6 ~ ' ` ^ ` u 8 6 6 6 6 6 7 2 3 E.E.E.E.E.E.E.E.E.E.E.E.E.E.E.E.E.E.E.E.E.E.E.",
"E.E.E.E.E.E.E.E.E.E.E.E.E.E.E.E.E.E.E.E.E.E.E.E.E.' } } ' ' ' ' e 6 e | >.} ' ~ 6 6 y ' ^ y ^ u 4 6 6 6 6 6 6   3 E.E.E.E.E.E.E.E.E.E.E.E.E.E.E.E.E.E.E.E.E.E.E.",
"E.E.E.E.E.E.E.E.E.E.E.E.E.E.E.E.E.E.E.E.E.E.E.E.E.' } X.' ' ' ' w 6 e | >.} ' ^ 6 6 y ' ` ^ ` u 4 6 6 6 6 6 6 3 3 E.E.E.E.E.E.E.E.E.E.E.E.E.E.E.E.E.E.E.E.E.E.E.",
"E.E.E.E.E.E.E.E.E.E.E.E.E.E.E.E.E.E.E.E.E.E.E.E.E.' } X.' ' ' ' w 6 r | >.} ' ^ 6 6 y ` ` ^ ` u 4 6 6 6 6 6 6 1 3 E.E.E.E.E.E.E.E.E.E.E.E.E.E.E.E.E.E.E.E.E.E.E.",
"E.E.E.E.E.E.E.E.E.E.E.E.E.E.E.E.E.E.E.E.E.E.E.E.E.' } | ' ' ' ' w 6 w } o.} ' ~ 6 6 ~ ' ^ ~ ` u 4 6 6 6 6 6 6 3 3 E.E.E.E.E.E.E.E.E.E.E.E.E.E.E.E.E.E.E.E.E.E.E.",
"E.E.E.E.E.E.E.E.E.E.E.E.E.E.E.E.E.E.E.E.E.E.E.E.E.' } | ' ' } ' w 2 8 ( | ' ' ^ 6 2 y ` ` ~ ` u 4 6 6 6 6 6 6 1 3 E.E.E.E.E.E.E.E.E.E.E.E.E.E.E.E.E.E.E.E.E.E.E.",
"E.E.E.E.E.E.E.E.E.E.E.E.E.E.E.E.E.E.E.E.E.E.E.E.E.' } X.' } ' ' 9 2 9 ` X.' ' ^ 6 1 p ' ` ^ ` u 4 6 6 6 6 6 7 3 3 E.E.E.E.E.E.E.E.E.E.E.E.E.E.E.E.E.E.E.E.E.E.E.",
"E.E.E.E.E.E.E.E.E.E.E.E.E.E.E.E.E.E.E.E.E.E.E.E.E.| | } } } ' } q 5 w } o.} ' y 2 2 y ` ^ ~ ^ u 8 6 6 6 6 6 6   3 E.E.E.E.E.E.E.E.E.E.E.E.E.E.E.E.E.E.E.E.E.E.E.",
"E.E.E.E.E.E.E.E.E.E.E.E.E.E.E.E.E.E.E.E.E.E.E.E.E.<.,.o.X.X.' o.0 o 8 ( X.} ' / o o r ' ` ^ ` u 4 6 6 6 6 6 6 2 3 E.E.E.E.E.E.E.E.E.E.E.E.E.E.E.E.E.E.E.E.E.E.E.",
"E.E.E.E.E.E.E.E.E.E.E.E.E.E.E.E.E.E.E.E.E.E.E.E.E.<.>.} X.| } o.0 . 8 ] o.} ' ) o o r ' ~ ~ ` u 4 6 6 6 6 6 6 3 3 E.E.E.E.E.E.E.E.E.E.E.E.E.E.E.E.E.E.E.E.E.E.E.",
"E.E.E.E.E.E.E.E.E.E.E.E.E.E.E.E.E.E.E.E.E.E.E.E.E.<.>.} o.| ' o.0 X 8 ] o.} ' / o o r ` ^ ' ' u 4 6 6 6 6 6 6 3 3 E.E.E.E.E.E.E.E.E.E.E.E.E.E.E.E.E.E.E.E.E.E.E.",
"E.E.E.E.E.E.E.E.E.E.E.E.E.E.E.E.E.E.E.E.E.E.E.E.E.<.>.} o.' ' o.0   8 ( X.} ' ) o o r ' ~ ` ' u 4 6 6 6 6 6 6 2 3 E.E.E.E.E.E.E.E.E.E.E.E.E.E.E.E.E.E.E.E.E.E.E.",
"E.E.E.E.E.E.E.E.E.E.E.E.E.E.E.E.E.E.E.E.E.E.E.E.E.} X.>.} ' ' o.0 . 8 ] >.} ' / o o i ` ^ e y r 4 6 6 6 6 6 6   3 E.E.E.E.E.E.E.E.E.E.E.E.E.E.E.E.E.E.E.E.E.E.E.",
"E.E.E.E.E.E.E.E.E.E.E.E.E.E.E.E.E.E.E.E.E.E.E.E.E.' } X.| } ' o.0 . 8 ] X.} ' ) o o r ` ` ~ ~ r 4 6 6 6 6 6 6 1 3 E.E.E.E.E.E.E.E.E.E.E.E.E.E.E.E.E.E.E.E.E.E.E.",
"E.E.E.E.E.E.E.E.E.E.E.E.E.E.E.E.E.E.E.E.E.E.E.E.E.' } o.X.X.} o.0 . 8 ] o.| ' ) o o r ^ ^ t ~ r 4 6 6 6 6 6 6 3 3 E.E.E.E.E.E.E.E.E.E.E.E.E.E.E.E.E.E.E.E.E.E.E.",
"E.E.E.E.E.E.E.E.E.E.E.E.E.E.E.E.E.E.E.E.E.E.E.E.E.' } | | } } o.0   8 / X.| ' / o o r y y t ~ r 8 6 6 6 6 6 6 3 3 E.E.E.E.E.E.E.E.E.E.E.E.E.E.E.E.E.E.E.E.E.E.E.",
"E.E.E.E.E.E.E.E.E.E.E.E.E.E.E.E.E.E.E.E.E.E.E.E.E.' ' } } | ' o.0 . 8 ( X.| | ) o o i y y ~ ~ r 4 6 6 6 6 6 6 2 3 E.E.E.E.E.E.E.E.E.E.E.E.E.E.E.E.E.E.E.E.E.E.E.",
"E.E.E.E.E.E.E.E.E.E.E.E.E.E.E.E.E.E.E.E.E.E.E.E.E.' ' ' } | ' | 0 . 8 ( X.| | ) o o r w ~ ~ ~ r 4 6 6 6 6 6 6 3 3 E.E.E.E.E.E.E.E.E.E.E.E.E.E.E.E.E.E.E.E.E.E.E.",
"E.E.E.E.E.E.E.E.E.E.E.E.E.E.E.E.E.E.E.E.E.E.E.E.E.' ' ' ' ' } ' 0   8 / | ' ' / o o r w y t ^ u 4 6 6 6 6 6 6   3 E.E.E.E.E.E.E.E.E.E.E.E.E.E.E.E.E.E.E.E.E.E.E.",
"E.E.E.E.E.E.E.E.E.E.E.E.E.E.E.E.E.E.E.E.E.E.E.E.E.' ' ' ' ' ' ' 8 3 8 ] X.} ' ) o o r y y y ^ r 4 6 6 6 6 6 6 2 3 E.E.E.E.E.E.E.E.E.E.E.E.E.E.E.E.E.E.E.E.E.E.E.",
"E.E.E.E.E.E.E.E.E.E.E.E.E.E.E.E.E.E.E.E.E.E.E.E.E.` ^ ' ' ' ' ' 4   8 ( X.} ' / o o r e t y ~ r 8 6 6 6 6 6 6 3 3 E.E.E.E.E.E.E.E.E.E.E.E.E.E.E.E.E.E.E.E.E.E.E.",
"E.E.E.E.E.E.E.E.E.E.E.E.E.E.E.E.E.E.E.E.E.E.E.E.E.^ ` ' ' ' ' } 1   8 ( | } ' / o o r t y y ~ u 4 6 6 6 6 6 7 3 3 E.E.E.E.E.E.E.E.E.E.E.E.E.E.E.E.E.E.E.E.E.E.E.",
"E.E.E.E.E.E.E.E.E.E.E.E.E.E.E.E.E.E.E.E.E.E.E.E.E.^ ' ' ^ y ' ' 9 3 8 / | ' ' ) o o r y y y ~ r 4 6 6 6 6 6 6 2 1 E.E.E.E.E.E.E.E.E.E.E.E.E.E.E.E.E.E.E.E.E.E.E.",
"E.E.E.E.E.E.E.E.E.E.E.E.E.E.E.E.E.E.E.E.E.E.E.E.E.^ ^ e ' ' ' ' 0 . 8 / } ' ' / o o i 7 t e t r 4 6 6 6 6 6 6 X 3 E.E.E.E.E.E.E.E.E.E.E.E.E.E.E.E.E.E.E.E.E.E.E.",
"E.E.E.E.E.E.E.E.E.E.E.E.E.E.E.E.E.E.E.E.E.E.E.E.E.y ^ ^ ^ ^ ' | 0 . 4 / } ' ' p o   r y y e w 7 6 6 6 6 6 6 6 2 3 E.E.E.E.E.E.E.E.E.E.E.E.E.E.E.E.E.E.E.E.E.E.E.",
"E.E.E.E.E.E.E.E.E.E.E.E.E.E.E.E.E.E.E.E.E.E.E.E.E.w t ^ t ~ ` ' O . 5 u } ' ] u   1 6 7 w w w 6 3 6 6 6 6 6 6 3 3 E.E.E.E.E.E.E.E.E.E.E.E.E.E.E.E.E.E.E.E.E.E.E.",
"E.E.E.E.E.E.E.E.E.E.E.E.E.E.E.E.E.E.E.E.E.E.E.E.E.7 w e ~ y ^ ` O . 4 u ' ' ` u   1 6 e w w w 8 5 6 6 6 6 6 6 3 3 E.E.E.E.E.E.E.E.E.E.E.E.E.E.E.E.E.E.E.E.E.E.E."
};
