/* XPM */
static char *result[] = {
/* columns rows colors chars-per-pixel */
"64 64 39 1 ",
"  c #272727",
". c gray23",
"X c #434343",
"o c gray28",
"O c #373737",
"+ c #4B4B4B",
"@ c #2F2F2F",
"# c gray31",
"$ c #373F27",
"% c #332B13",
"& c #2F371F",
"* c #232323",
"= c #3F472B",
"- c gray34",
"; c #070707",
": c #0B0B0B",
"> c #0B1707",
", c #131313",
"< c #13230B",
"1 c #1B1B1B",
"2 c #170F07",
"3 c #171F07",
"4 c #232B0F",
"5 c #5B5B5B",
"6 c #1F170B",
"7 c gray39",
"8 c #6F6F6F",
"9 c #474F33",
"0 c #432F1B",
"q c #53573B",
"w c #5B6347",
"e c #4F3B2B",
"r c #533F2F",
"t c gray42",
"y c #4F3B27",
"u c #473323",
"i c #777777",
"p c #3F2B1B",
"a c #372313",
/* pixels */
" .X...X..X..XoXXXX.X...O+XXXXX.X.XX.OO...X+.X@X........XX#XoXXX$",
" O$%$&$ $*@@@  & X O@    @ @@ &@&$$&$O=@$@O& @O$@&    @ O#&$$ &$",
"@$@o+o++ooooXoXX++o#+O+.ooo.X.  $@OX++++#-+o++++o+o+++X++o+oX@ O",
"@=o;;;;:;;;;;;;;;;;;;;;;;;;;:XO@OX+;;;;;;;;;;;;;;;;;;;;;;;;;;X&$",
"$X+;>,,:,:,::,,:,:,,:,,,::::;#.O.X#;:<1,,,<,>,,,,,2,,:1,,3:;;+O$",
"$X#;4&*  *        @@  O    ,;#XXX+-;1&@@OO=&@O@$@O@@&  *O& 1;+O.",
"O=-;,&@ *1&   1 @&.@  *  **:;5XoX--;< O& O@&O&.O$.@@ O*   63;+$O",
"..+ @O@@@@@@@@@@@@@@@@@@@@@@ -X.Xo- @@@O@OOO@..OO@@@@@@@@@O@ o@O",
"$@.+557--5-8-75-+-7-#55-5#+--++@XX55--557575577755----5-o-55+XO9",
"$9$+5+++o++-+#####+++o##X+oo+++.o+#+++o-+##++-o#-#+ooXXo+ooo+=$O",
"O.X.o+o##X-#o+o#o+o+oX+++oXoX+ooXo++oo#+++#oo+o++o+XoooX#++oX.O.",
"@O@Xo.o+#X+oX###oo5++o++oo+X#+ooo+#-o++#+##+++#-oX+XXo-#++X+X.0@",
"@@.o+o-#+#+++#+###-#-#+++++#+oXo+++-#+#-#-5--#--++#++-####+##=.9",
"O$qO..@..O.OOO.X....X..O.@OOO#+++o#+.O.........OO..OO.X.XOOOOXoO",
"$O#;;;;;;;;;;;;;;;;;;;;;;;;;;-#+##7;;;;;;;;;;;;;;;;;;;;;;:;;;w.O",
"=.w;<1<11*1,1*  *@  @   &11,;7#o+-7;1*&*.   @@*1  &=* @& **<;5=9",
".=#;4O @OO&@*.O...Xo...Xo.. ;5#+++5;1O@O.X.@.XO...O .X.O.. 1;-Xq",
"=e#;;;;:::;>:,>,,,,,>>,<::>;;5#o+55;;:,,,,::::,,::,,,,1,:,::;-9q",
"999OOOOO....O......XXX..XX...-#++##O...XOXOO........@.XO.....#=q",
"9X9+#+#+#++---#--5--5#-5-5##5##X#o##--#7-#+#-##-5-5--5-55#o#o+=q",
"=99Xo+#+#-+oo+-5#5#5-#-#-+-5ooo+-++------++o++-+#-##5--#++#++9=$",
"@=9o++#--#+X#+#--#-55#5--#--###+#+##-+o-+++##-5+++5-5-#-+#+o99$=",
"&9=++#+----#5##+#--555-#5-+-#+##5X+o#++##55-55-5##55-#--#-##+X=r",
"e99-557557t5-577757t7777t75775--55-57777tt577777777777777777-X0y",
"@ew @@O @O@@@@@OXO@@OO@O@O@O@755##7 @@@OOOO@@@O@@O@O@O @@@O@@+$O",
"eo-;,  * @@  @ .@@@   @$&@@ ;7----7;1 @  @  &  .@&@.@&&   1<;#ue",
"9=5; Xo+..+X#oX+o+Xo+oXX+oXX;7-+557; ...X.-++o+#++#+oo++oX.&;-99",
".9-; OO.XXXX.ooXXX.Xo+ooo+o@:75--77;1...XXX.XX+oX+.+XXXo.X.1;w=e",
"$eo;;:,,:>1:,,11,,,,1,<>>>::;7-55-5;:;,,,,<>,<:><<<,>>,,::>:;#=e",
"eOO#-77777ttt77778885i77t-7t7-55++55757t7tttt7t7777tt7777775-X=9",
"e$.#-#-5-57-555----55-5--5-----##+-##t-5#---5-#-##--7---5+-#+9=.",
"OO$+++#----5--57#-5---5-5#--#-#-#5+##555-575--555+-#-55#--##.=9O",
"$O$XX#+#####5-#5---5-+X-+#--#-#5--+#+-7#---5--55#---5#--#+#+o$$O",
"u.$.X#------5#--75--5#-+#55--5+--#--##55---55#-++#5-5#557-#+X9=r",
"OO$+#577t8777775tt7t775777775++--+--5777757t77577777757t7t77-X=.",
"OOo;;;;;;;;;;;;;;;;;;;;;;;;;;55-+57;;;;;;;;;;;;;:;;;;;;;;;;;;#9O",
"@O+;: & $@  OO O$.@O@,*O*1 *;5#o-#5;,*.   @O@.&..@O   O@  1:;#$e",
"@O+;6@Xo++oo+#++o#oX.o#XX+X.;5###--; O+ooo+###+##OX..+.o++. ;#$.",
"$O+;,&OoXXXX.oXXO+oXo+XX...1;7-+-#7;*XXOX.++X+XooXX.XXOoO.@ ;#OO",
"9Oo @O.....XX....XXX.OOOXoO@@5---75 @.O....XX..X@.O...OXX@O@ ope",
"e&.+575777777t77t778tt7777755-++-+577775t777t7t7777777577555#..e",
"OO9.X+-#575-#-5-55--#55--57++##--+#555--55-5-#-----##5+-5oX-X.e.",
"@e=...+##o+o5-7-#5##++#+o--55-5-##--#---55--###5-###--##-#X.o9Oy",
"@Oe..o+-#+-#+57--5--#+#+#---+-######-#---#-#-55-5++5+#+##XXOouuO",
"uO.X#-+-+#-#--5#---55-5+#-555------#--#5--5-5555-#####-+++o+XO=O",
"u9q@X.O.O...X.X....XO.X.....O5--55-..X....XXXX.ooO.OOX.X@XOOOque",
"OO+;;;;;;;;;;;;;;;;;;;;;;;;;;755#-7;;;;;;;;;;;;;;;;;;:;;;;;;;+.e",
"OO#;: ,***  1**1@@ @  $  @**;5#5--7:*OO@$ @1*@O*. @*@@@111,:;#ye",
"$9-;,O OOOOO..@@XX@.oo..OXO ;5---5t;O.o..+O.o..@X..X.X#..& ,;-9X",
"9qw;;;:::;:>>::::,:,:,1:,::;;75--#7;>:,:,><,>:::,<1<,,:,>:;;;#ue",
"eqqOOO.OOO..O...O.OX....O.X.O-#+##5..X...XXX..X@OO...O..XO.@@oO9",
"99Xo+55oo+-#+#5+#++--5----##++-#-5-+---#755----#-+-##-----#+oO&=",
"uqooooXoX++X+##-o+-##+#-##-#-+-+-------+#+-++X+##o#o#5##o++XO$ue",
"9XXXooXX+++o+5#-#o-5-##o+-##+##+-o----#X##+ooo#o+X+#-+#+#++Xo=$q",
"===##+#-+##oo+###o5+#-+++#+#-+++-#--+5-#+##77-##5++#--5#-#oo59=.",
"=O95557575577575555o755555575#++##-575555-777775775557757755#999",
".9+ @@@@@@@O@@.@@@@@ @@@@@@@@5+o#+5@o@@@@@@@@O@@@@@@@OO@@@@@ -99",
"=X+;:1*,1* **1111*11<1,,1*1,;5#X+55;> 11 1 *11 1*  1* **,11,;#X9",
"$u+;4$O& @X.@ O...@O @@ OO@<;5oo++-; O.OO.oXO.O...O$O..O@$&4;#$9",
"$@q;,&&111& 1@@@ &@** 1  @ 1:5+XXX-;1 &$O@ @ &@@O$ @  OO&142;#.=",
"$OX;;:;;;:;:;;;:;;:;;:;:;;:;;-oXXXo;;;;::;;:::::;::;;;;;:;;;;o$=",
"@&Oo#5++++-5-5##--5-#-7+##-+#oX.9@X+--------##---####++#--#7-O$u",
" O-#-+-5--5575-57855555-555o555-#-##q55#77755-55+--X--X-577-#+.$",
"a 0$$&=u@ &$$O@$.$=$  @@$$$==$@$.&@O@@@@$$$$$=u@@@@@@@@ =O$O0  &"
};
