/* XPM */
static char *result[] = {
/* columns rows colors chars-per-pixel */
"80 80 39 1 ",
"  c black",
". c #2B230F",
"X c #332B13",
"o c #3F2F17",
"O c gray23",
"+ c #730000",
"@ c #4B371B",
"# c #533F1F",
"$ c #5F4323",
"% c #6B4727",
"& c #774F2B",
"* c gray31",
"= c gray34",
"- c gray39",
"; c #777777",
": c gray50",
"> c #875733",
", c #8F5F37",
"< c #9B633B",
"1 c #A36B3F",
"2 c #AB6F43",
"3 c #B37347",
"4 c #BF7B4B",
"5 c #CB7F4F",
"6 c #CF8353",
"7 c #D78B5B",
"8 c #DF9363",
"9 c #E79B6B",
"0 c #EFA373",
"q c #F7AB7B",
"w c #000083",
"e c #9F9F9F",
"r c gray67",
"t c #FFB383",
"y c #FFBB93",
"u c #FFBF9B",
"i c #FFC7A7",
"p c gray86",
"a c None",
/* pixels */
"aaaaaaaaaaaaaaaXXX$$$###$$%%%&&&,,,<<<<<<<<<<,,,&&&%%%$$###$$$XXXaaaaaaaaaaaaaaa",
"aaaaaaaaaaaaaaaXXX$$$###$$%%%&&&,,,<<<<<<<<<<,,,&&&%%%$$###$$$XXXaaaaaaaaaaaaaaa",
"aaaaaaaaaaaaaaaXXX$$$###$$%%%&&&,,,<<<<<<<<<<,,,&&&%%%$$###$$$XXXaaaaaaaaaaaaaaa",
"aaaaaaaaaaaaaXX###%%%,,,,,1111112222244433322<<<,,,>>>&&&&&%%%@@@XXaaaaaaaaaaaaa",
"aaaaaaaaaaaaaXX###%%%,,,,,1111112222244433322<<<,,,>>>&&&&&%%%@@@XXaaaaaaaaaaaaa",
"aaaaaaaaaaaaaXX###%%%,,,,,1111112222244433322<<<,,,>>>&&&&&%%%@@@XXaaaaaaaaaaaaa",
"aaaaaaaaaaaaaXX@@@,,,,,,111113333334444444444333111,,,,,>>>%%%@@@..aaaaaaaaaaaaa",
"aaaaaaaaaaaaaXX@@@,,,,,,111113333334444444444333111,,,,,>>>%%%@@@..aaaaaaaaaaaaa",
"aaaaaaaaaaaaaXX@@@,,,,,,111113333334444444444333111,,,,,>>>%%%@@@..aaaaaaaaaaaaa",
"aaaaaaaaaa...XX###$$$&&&,,<<<44455566111333<<<<<<<<,,,,,&&&&&&###.....aaaaaaaaaa",
"aaaaaaaaaa...XX###$$$&&&,,<<<44455566111333<<<<<<<<,,,,,&&&&&&###.....aaaaaaaaaa",
"aaaaaaaaaa.....XXX&&&>>>&&,,,<<<333>>222,,,11&&&&&&&&&&&$$$###XXXXX...aaaaaaaaaa",
"aaaaaaaaaa.....XXX&&&>>>&&,,,<<<333>>222,,,11&&&&&&&&&&&$$$###XXXXX...aaaaaaaaaa",
"aaaaaaaaaa.....XXX&&&>>>&&,,,<<<333>>222,,,11&&&&&&&&&&&$$$###XXXXX...aaaaaaaaaa",
"aaaaaaaaaa........$$$&&&$$,,,###222,,%%%,,,@@ooo$$$@@@$$@@@XXX...XX...aaaaaaaaaa",
"aaaaaaaaaa........$$$&&&$$,,,###222,,%%%,,,@@ooo$$$@@@$$@@@XXX...XX...aaaaaaaaaa",
"aaaaaaaaaa........$$$&&&$$,,,###222,,%%%,,,@@ooo$$$@@@$$@@@XXX...XX...aaaaaaaaaa",
"aaaaaaaaaa...XXXXX@@@###$$######<<<XXooo...%%@@@%%%@@@oo$$$...XXXXX...aaaaaaaaaa",
"aaaaaaaaaa...XXXXX@@@###$$######<<<XXooo...%%@@@%%%@@@oo$$$...XXXXX...aaaaaaaaaa",
"aaaaaaaaaa...XX...@@@&&&>>###,,,###%%###XXXXX%%%111%%%@@%%%###@@@@@...aaaaaaaaaa",
"aaaaaaaaaa...XX...@@@&&&>>###,,,###%%###XXXXX%%%111%%%@@%%%###@@@@@...aaaaaaaaaa",
"aaaaaaaaaa...XX...@@@&&&>>###,,,###%%###XXXXX%%%111%%%@@%%%###@@@@@...aaaaaaaaaa",
"aaaaaaaaaa...XX$$$###&&&,,222###444##<<<>>>##XXX%%%111,,%%%,,,###@@...aaaaaaaaaa",
"aaaaaaaaaa...XX$$$###&&&,,222###444##<<<>>>##XXX%%%111,,%%%,,,###@@...aaaaaaaaaa",
"aaaaaaaaaa...XX$$$###&&&,,222###444##<<<>>>##XXX%%%111,,%%%,,,###@@...aaaaaaaaaa",
"aaaaaaaaaa...@@$$$$$$,,,22333>>>111%%111444##444%%%11111>>>222,,,@@...aaaaaaaaaa",
"aaaaaaaaaa...@@$$$$$$,,,22333>>>111%%111444##444%%%11111>>>222,,,@@...aaaaaaaaaa",
"aaaaaaaaaa...@@$$$$$$,,,22333>>>111%%111444##444%%%11111>>>222,,,@@...aaaaaaaaaa",
"aaaaaaaaaa...@@&&&&&&<<<33333333>>>11>>>,,,,,<<<111,,,33333>>><<<@@...aaaaaaaaaa",
"aaaaaaaaaa...@@&&&&&&<<<33333333>>>11>>>,,,,,<<<111,,,33333>>><<<@@...aaaaaaaaaa",
"aaaaaaa333   @@&&&<<<6660099966644411&&&&&&1144466699900666<<<&&&oo   333aaaaaaa",
"aaaaaaa333   @@&&&<<<6660099966644411&&&&&&1144466699900666<<<&&&oo   333aaaaaaa",
"aaaaaaa333   @@&&&<<<6660099966644411&&&&&&1144466699900666<<<&&&oo   333aaaaaaa",
"aaaaaaa333ooo@@,,,333999yyyyyttt9996611111166999tttyyyyy999333,,,@@ooo333aaaaaaa",
"aaaaaaa333ooo@@,,,333999yyyyyttt9996611111166999tttyyyyy999333,,,@@ooo333aaaaaaa",
"aaaaaaa333ooo@@,,,333999yyyyyttt9996611111166999tttyyyyy999333,,,@@ooo333aaaaaaa",
"aaaaaaa,,,ooo@@333########111888yyy33666qqq33yyy888111########333@@ooo,,,aaaaaaa",
"aaaaaaa,,,ooo@@333########111888yyy33666qqq33yyy888111########333@@ooo,,,aaaaaaa",
"aaaaaaa,,,ooo@@333########111888yyy33666qqq33yyy888111########333@@ooo,,,aaaaaaa",
"aaaaaaa%%%$$$>>,,,oooooooo%%%333%%%@@111111@@%%%333%%%oooooooo,,,>>$$$%%%aaaaaaa",
"aaaaaaa%%%$$$>>,,,oooooooo%%%333%%%@@111111@@%%%333%%%oooooooo,,,>>$$$%%%aaaaaaa",
"aaaaaaa>>>$$$<<999&&&:::ww   ===   @@######@@   ===   ww:::&&&999<<$$$>>>aaaaaaa",
"aaaaaaa>>>$$$<<999&&&:::ww   ===   @@######@@   ===   ww:::&&&999<<$$$>>>aaaaaaa",
"aaaaaaa>>>$$$<<999&&&:::ww   ===   @@######@@   ===   ww:::&&&999<<$$$>>>aaaaaaa",
"aaaaaaa,,,$$$55qqq99922200222<<<$$$%%222222%%$$$<<<22200222999qqq55$$$,,,aaaaaaa",
"aaaaaaa,,,$$$55qqq99922200222<<<$$$%%222222%%$$$<<<22200222999qqq55$$$,,,aaaaaaa",
"aaaaaaa,,,$$$55qqq99922200222<<<$$$%%222222%%$$$<<<22200222999qqq55$$$,,,aaaaaaa",
"aaaaaaaaaa$$$55qqqqqq99999999qqq77722qqqqqq22777qqq99999999qqqqqq55$$$aaaaaaaaaa",
"aaaaaaaaaa$$$55qqqqqq99999999qqq77722qqqqqq22777qqq99999999qqqqqq55$$$aaaaaaaaaa",
"aaaaaaaaaa$$$55qqqqqq99999999qqq77722qqqqqq22777qqq99999999qqqqqq55$$$aaaaaaaaaa",
"aaaaaaaaaa>>>4477799966644,,,$$$22277iiiiii77222$$$,,,4466699977755>>>aaaaaaaaaa",
"aaaaaaaaaa>>>4477799966644,,,$$$22277iiiiii77222$$$,,,4466699977755>>>aaaaaaaaaa",
"aaaaaaaaaa>>>22555999111OO%%%$$$&&&1199999911&&&$$$%%%OO11199955544aaaaaaaaaaaaa",
"aaaaaaaaaa>>>22555999111OO%%%$$$&&&1199999911&&&$$$%%%OO11199955544aaaaaaaaaaaaa",
"aaaaaaaaaa>>>22555999111OO%%%$$$&&&1199999911&&&$$$%%%OO11199955544aaaaaaaaaaaaa",
"aaaaaaaaaaaaa<<555777222%%OOO,,,444>>>>>>>>++444,,,OOO%%22277755522aaaaaaaaaaaaa",
"aaaaaaaaaaaaa<<555777222%%OOO,,,444>>>>>>>>++444,,,OOO%%22277755522aaaaaaaaaaaaa",
"aaaaaaaaaaaaa<<555777222%%OOO,,,444>>>>>>>>++444,,,OOO%%22277755522aaaaaaaaaaaaa",
"aaaaaaaaaaaaa%%555777555<<---***;;;::eeeeee::;;;***---33555777111<<aaaaaaaaaaaaa",
"aaaaaaaaaaaaa%%555777555<<---***;;;::eeeeee::;;;***---33555777111<<aaaaaaaaaaaaa",
"aaaaaaaaaaaaa%%555777555<<---***;;;::eeeeee::;;;***---33555777111<<aaaaaaaaaaaaa",
"aaaaaaaaaaaaaaa11155577733777------rrpppppprr------77722777555<<<aaaaaaaaaaaaaaa",
"aaaaaaaaaaaaaaa11155577733777------rrpppppprr------77722777555<<<aaaaaaaaaaaaaaa",
"aaaaaaaaaaaaaaa%%%22255533222777---;;::::::;;---77722233555222%%%aaaaaaaaaaaaaaa",
"aaaaaaaaaaaaaaa%%%22255533222777---;;::::::;;---77722233555222%%%aaaaaaaaaaaaaaa",
"aaaaaaaaaaaaaaa%%%22255533222777---;;::::::;;---77722233555222%%%aaaaaaaaaaaaaaa",
"aaaaaaaaaaaaaaaaaa%%%22255555,,,33377yyyyyy77333,,,55555222%%%aaaaaaaaaaaaaaaaaa",
"aaaaaaaaaaaaaaaaaa%%%22255555,,,33377yyyyyy77333,,,55555222%%%aaaaaaaaaaaaaaaaaa",
"aaaaaaaaaaaaaaaaaa%%%22255555,,,33377yyyyyy77333,,,55555222%%%aaaaaaaaaaaaaaaaaa",
"aaaaaaaaaaaaaaaaaaaaa%%%66888555,,,$$oooooo$$,,,55588866%%%aaaaaaaaaaaaaaaaaaaaa",
"aaaaaaaaaaaaaaaaaaaaa%%%66888555,,,$$oooooo$$,,,55588866%%%aaaaaaaaaaaaaaaaaaaaa",
"aaaaaaaaaaaaaaaaaaaaaaaa%%22288855522>>>>>>22555888222%%aaaaaaaaaaaaaaaaaaaaaaaa",
"aaaaaaaaaaaaaaaaaaaaaaaa%%22288855522>>>>>>22555888222%%aaaaaaaaaaaaaaaaaaaaaaaa",
"aaaaaaaaaaaaaaaaaaaaaaaa%%22288855522>>>>>>22555888222%%aaaaaaaaaaaaaaaaaaaaaaaa",
"aaaaaaaaaaaaaaaaaaaaaaaaaa%%%,,,77799uuuuuu99777,,,%%%aaaaaaaaaaaaaaaaaaaaaaaaaa",
"aaaaaaaaaaaaaaaaaaaaaaaaaa%%%,,,77799uuuuuu99777,,,%%%aaaaaaaaaaaaaaaaaaaaaaaaaa",
"aaaaaaaaaaaaaaaaaaaaaaaaaa%%%,,,77799uuuuuu99777,,,%%%aaaaaaaaaaaaaaaaaaaaaaaaaa",
"aaaaaaaaaaaaaaaaaaaaaaaaaaaaaaaa$$$,,333333,,$$$aaaaaaaaaaaaaaaaaaaaaaaaaaaaaaaa",
"aaaaaaaaaaaaaaaaaaaaaaaaaaaaaaaa$$$,,333333,,$$$aaaaaaaaaaaaaaaaaaaaaaaaaaaaaaaa",
"aaaaaaaaaaaaaaaaaaaaaaaaaaaaaaaa$$$,,333333,,$$$aaaaaaaaaaaaaaaaaaaaaaaaaaaaaaaa"
};
