/* XPM */
static char *result[] = {
/* columns rows colors chars-per-pixel */
"64 64 117 2 ",
"   c #1E1E1E",
".  c #1B1B1B",
"X  c #252525",
"o  c gray23",
"O  c gray39",
"+  c gray50",
"@  c gray42",
"#  c #7E7E7E",
"$  c gray31",
"%  c #393939",
"&  c #272727",
"*  c #181818",
"=  c #282828",
"-  c #484848",
";  c #646464",
":  c gray37",
">  c #767676",
",  c #777777",
"<  c #2A2A2A",
"1  c gray10",
"2  c #2F2F2F",
"3  c #414141",
"4  c #5B5B5B",
"5  c #585858",
"6  c gray43",
"7  c gray26",
"8  c #151515",
"9  c #434343",
"0  c #373737",
"q  c gray15",
"w  c #131313",
"e  c #4C4C4C",
"r  c #6F6F6F",
"t  c #202020",
"y  c #555555",
"u  c #3A3A3A",
"i  c #323232",
"p  c #5A5A5A",
"a  c #6D6D6D",
"s  c #626262",
"d  c #7C7C7C",
"f  c gray34",
"g  c #3C3C3C",
"h  c gray11",
"j  c #161616",
"k  c #353535",
"l  c gray38",
"z  c #606060",
"x  c #3F3F3F",
"c  c gray35",
"v  c gray40",
"b  c DimGray",
"n  c gray14",
"m  c gray29",
"M  c #4B4B4B",
"N  c #343434",
"B  c gray48",
"V  c gray22",
"C  c #222222",
"Z  c #6A6A6A",
"A  c gray36",
"S  c #868686",
"D  c #727272",
"F  c #2C2C2C",
"G  c #1B150D",
"H  c #838383",
"J  c #444444",
"K  c gray44",
"L  c gray19",
"P  c gray18",
"I  c #535353",
"U  c #676767",
"Y  c gray28",
"T  c #191919",
"R  c gray30",
"E  c #686868",
"W  c gray33",
"Q  c #6C6C6C",
"!  c #818181",
"~  c #494949",
"^  c gray21",
"/  c #3E3E3E",
"(  c #464646",
")  c gray46",
"_  c #656565",
"`  c gray27",
"'  c #5D5D5D",
"]  c #565656",
"[  c #505050",
"{  c #4E4E4E",
"}  c #5F5F5F",
"|  c gray8",
" . c #848484",
".. c #747474",
"X. c #515151",
"o. c gray24",
"O. c #232323",
"+. c #7B7B7B",
"@. c gray9",
"#. c gray45",
"$. c gray12",
"%. c gray51",
"&. c #1D1912",
"*. c #1D1D1D",
"=. c gray52",
"-. c gray32",
";. c #8B8B8B",
":. c #888888",
">. c #808080",
",. c #1B1B1A",
"<. c gray54",
"1. c #1C1A16",
"2. c gray47",
"3. c #717171",
"4. c #1B160E",
"5. c gray49",
"6. c #1E1810",
/* pixels */
"  . X o O + @ # $ % & * * = - ; : > , o < . 1 . 2 3 4 5 6 4 7 2 . 8   o @ @ 5 O 9 0 q 8 w & e ; O O r e 2 t .   < e r 4 O y u 2 ",
"2 . *   i p a s d 9 i = 1 8 q e f y 6 ; g 2 h j . k l ; z a 4 x 2 . w   o c v e b $ % n 8 w 2 $ @ 5 O , m 2 t * 1 2 O a O z M % ",
"N & . *   u 4 B f 4 $ V & j j = f p f , + m 2 C . . 2 c Z - $ O x = * j q 0 4 A 5 S f 2 X 8 1 < y M m D @ % F   G . 0 y f M O f ",
"e % i t . C o O M 3 H f N X . . F J l v , K J L n * j F p @ e r p 3 P . . . u @ , A 6 I % q 8 1 < y @ r U U 9 0 X 1 j < Y p ; @ ",
"r c o F T 1 X o @ A M H J 2 & 1 1 q R @ O f E u 2 n j * i 4 v W K O o 2 . w C g O Q 9 , 4 N & . . F M @ a > ! ~ 0   8 T i 4 O 4 ",
"O a 4 ^ n . j t 9 b @ v , 9 i & 8 8 q M v 5 , Z / L q 1 * 2 p 6 4 @ y V & . j . N b f p B g 0 F 1 1 & ( O l 6 ) o 2   T   N 4 U ",
"@ $ 6 4 % 2 . * C o O O _ E Y 0 X j 8 2 e @ O s A ` 2 h j   ^ ' ] R [ M 0 &   1   o f 5 f # f V t 8 1 & - p 4 r @ ~ 2   1 . 2 p ",
"f O 4 ' ; / & . 8 h k 4 f l H 9 N & . w C { s ( O ! ( P   1 1 2 e O M E } N F t . C % v a M 6 5 V = | * < Y p f ,  .9 2 h 1 . 0 ",
"N f r $ > 4 V 2 . * q 9 @ ..b O J k P T 8 & M s v , @ 9 2 n * . 2 O r s > E 0 F   1   0 W f { @ M 2 X . 1 & Y X.M , @ o.2 O.1 . ",
". L } $ e r 4 % 2 . 1 n % Z d O ! I u & 8 T & M @ Z A A x N X 1 * L c ' c , M N =   . X u y a : ! - 2 q 1 8 & M 4 a 6 r x 2 t w ",
"8 . N M ( ( O 4 u = . 8 C 9 U 4 O +.I ^ & . T = { a > , O o 2 t j . 2 f @ @ > 4 N 2   1 & 9 O r O d M V & @.1 < M @ 4 O K Y 2   ",
"t 8 . V M M : , c V = . j C 2 9 f z H y k & . w X J O a l O M L q j . 0 4 4 4 O f x F . 1 t % v #.M ! I 0 & . 1 n X.E } , , Y 2 ",
"2 t 1 . V J @ 4 E 4 o & T w . 0 4 : M + { % & 8 8 q 9 @ Q D H o 2   w 8 < ` W M 6 @ g F $.1   o @ a O %.e % q 8 w X m v f 6 f x ",
"g 2   . . N } r f , r % < . . & Y Z y 4  .M 2 & &.. 2 $ Z E E O 9 P X j . ^ f M { , z V 2 . 1 *.g b $ M =.y 2 & . @.& M @ O ; , ",
"> u < n * . N M e f r f o F . 1 C 0 m 5 Z #.9 2 & . 1 < { c 5 ' z ( 0 q T . N { f M ] R N 2 . j n % M l O d x 0 & 1 w & 5 @ @ ..",
", O 9 L q 1   i -.l e f M g L 1 w h 0 M a s @ M 0 & 1 . P J v ' b , m 2 h 8 . ^ } O e O e u P . w   g @ r X.z m i X 1 w & m @ Z ",
"@ , , 9 L n . . 2 e 5 $ { 4 9 & . . q ^ p , e #.R L X . * 2 $ @ O Z v / i C . . V [ e ( O O N X . j n 3 O + W D ~ N P T j & x f ",
"b c > # 9 L t w . 2 p - 4 K 4 L 2   . h o @ ! R ' ( 2 t . 1 & 9 } 4 f @ R i n @.  % M U E D ; o.F . @.  o @ O e , X.V & * 1 X 9 ",
"- Y O , O 3 2 t 1 . N m f ; @ ~ L P   1 . / @ a 4 + Y i F 1 * X $ a r 4 a Y 2 . 1 . < { r ; 6 5 o F t @.n 9 s , R ; e o q 1 T F ",
"& M a z R E x P t 1 . N f r $ Z f / 2 . 1 . o b D I ! $ o q 1 . 2 c O { b ; M P . 8 j 2 R f f K ' 3 & . 8 . o.@ ; M B $ 0 n 8 . ",
"1 < X.4 M 6 ;.J L C T . & c O I 5 f 9 L . w t / f 4 f %.f ^ & 1 j q 9 f M 4 B Y P   1 1 2 f @ ; b M N 2 . w *.J : f -  .R < C T ",
"1 j & J ' O > O 9 2 X 1 T L f M m 4 e 9 P 1 8 h i O e 5 s / 2 & . 1 & m O s , , ` L   1 . i O 6 c [ e x & * w C 7 @ ' p  .M 0 & ",
"q * . 2 M O f O , 3 F t 1 . < f v f ; f x 2 . 1 t o v O m , f 0 & . * X $ @ O , , ` ^ t j * 2 4 r M f v V & * . . N b 6 O :.R N ",
"2 & . . = ` 4 4 > K u < h 8 * % : f 9 R E o.= . .   o @ , _ d 9 i q . @.2 M E a , > M V t 1 1 2 M l c #.I V P   8 . 9 @ c ] 4 9 ",
"e i < . j q 5 p f > @ 7 2 n @.. i 4 e M K 4 0 2   8 t 7 O v z 5 - i & . 1 & u z 6 Z Z 9 i C * . 2 M 6 M W f u 2 . w . V p _ I , ",
"# Y 2 & 1 * 2 9 b p @ H M N h * . L 4 ; O Q M o < . j q x @ a X.;.4 V q * . = u 4 f s r g 0 h 1 1 2 $ Q O Q 4 g 2 1 w   9 b >.@ ",
"f E 3 N & . 1 q ~ 5 c a O o 2 q * . 2 4 r ' f M 0 & 1 1 C u ] O v >.o.L & . . 2 X.f ; O p e N t . . & c @ c 4 O 3 2 . 8 *.% f l ",
"A [ + ` V < 1 1 & ~ Q a O E 9 k t 8 . 2 4 O $ , 4 ^ < . j n i 4 + 4 O ~ L & . . 2 y @ @ r H J 2 n * 1 < 4 Q - ] f u F . w $.% f ",
"O @ c , ~ 0 P * 1 F - @ a Q @ M i q * . 2 p O O r 4 o 2   . . V @ O O #.9 2 = T 1 X J @ 4 O O J 2 n 1 T 0 l M - f M o L h 1 q o.",
"g O O X., m 2 & . j X ( Z e ..s g 0 n w @.2 c 6 5 > O u X . 1 X g ` ..O d I 0 & w 1 & M @ 4 } @ 9 N q 1 . L M f - ; O x 2 . j t ",
"n V { O b ) - 2 & 1 * & M O $ K O ~ 2 n T ,.2 p 3 ( ..O V <   1 h 0 O B O <.M V & 1.. 2 { @ , , v 3 P n 1 . 2 4 6 X.A ~ V 2 h 1 ",
"T C V 4 a 4 , ~ 2 X 1 . & R O O O ; 9 ^ q 1 1 ^ M { c @ R % 2 h 8 . V M m 4 r Y i = . . & J O @ r @ o 0 n w 1 i 4 b ~ p e o.2 . ",
". 1 q 0 { f @ a M 2 & 1 8 = X.@ O @ f 9 N C 1 . 0 4 5 e 4 v x F . 8 t u z + { b J V = j w & 9 ' 4 f @ ~ 2 C 8 . N } Q 4 , O o 2 ",
"& . w h % b a c ; ` 2 X . 1 < M p -.' , ~ i C 1 . P m f e > 4 x X . 1 q 9 @ 4 e Z X.% & . . P y Z ; , , 9 F X . . 2 y E 4 , O V ",
"u F h 8   N 4 A e ! I ^ < 1 . = M O a ..# 3 2   8 . N 4 z 4 ..O 0 & h T   o M > 4 O - L q w * = R @ v , @ V 2 q @.w & ' 4 ` O 4 ",
"A o 2 h w n 9 : f O , ( 0 X j . = Y ; , , r ~ 2   1 h 2 e E v Q m V < 1 1 X 9 @ 5 e 2.Y N & w 1 & 9 @ @ , O 9 2 & 1 . 2 X.R Y O ",
"@ O g 2 . . n o - c p r $ i & 1 T < / f O @ O x F X 1   2 o 4 f [ E x & . j t V 4 O O + $ 0 & 1 8 q J @ @ @ s x u X * 1 2 4 f m ",
"5 4 M N & . 1 X % : 5 M r Y N & * . q ~ l c r a ~ F   . . & 4 Z -.> c ^ F . j   N 5 O : , f % O.8 8 & X.@ r O 6 3 ^ C @.. ^ O Z ",
"Q R a } u & . 8 X o e O X.@ 5 2 n . @.& 9 @ 4 > + 7 2 h * . 2 f @ $ e y V 2 . .   N @ > s r R L X 1 . F 9 f 5 K f - N   * 1 ^ O ",
"$ M : , ; x q . . t 9 O 5 5 s - i < * * F c @ @ 6 @ ` 2   . . N } 6 ( a 4 o = * 1 q 9 @ O $ ;.f L & 1 w & M @ A 4 H x P   * . L ",
"F - ' p r 4 k 2 . 1 n x c ' Y , X.u = 1 1 & x @ @ , + Y 2 t w 1 L ' @ f r ; k & . . q 0 p z f B m 2 < * j & M 5 a , 3.o ^ . 8 T ",
". P f r 4 @ f 9 < h . . ^ p 6 @ H M 0 & w 8 q 9 6 @ , U x P   j @.F X.a v , f V & . 1   u 5 c 4 # J x < T . 2 m @ v ..; 9 ^ C . ",
"j . L 4 O - p I ^ 2 . 1 h ^ @ H M 6 M V & . j X M O M a 6 ( 0 q @.. 2 c 4 $ r I V F   * . k 4 b M @ Y ^ & T * X 3 E r @ O ~ V X ",
"O.8 . 2 5 @ f ] 5 x P   1 h o @ 4 R z y % = * 4.X ` ; f , , M 2   1 . 2 J s I 6 $ i = . T t 9 4 4 l 4 ( ^ & j * & R @ l O O 9 2 ",
"2 t . . L c r M D O u 2 . w   i z z m U M o F j . 2 M f O ..+.o 2 q . . P $ ; M 5 e o 2 . . t u { p O ;.J k < . . 2 $ l { 6 > 9 ",
"3 2 n 1 . N 4 f 5 ; f o 2 1 8 t L O K f s m L & 1 j < $ O M , +.o L q . . 2 $ s M @ @ / q . 1 . L -.+ ; @ 9 % & 1 1 & 9 $ f > + ",
"@ o < X 1 . i X.4 9 f 5 o = . * h 9 E , J O 9 N O.w . 2 M M @ , E g P & . . 2 I -.Z , z 2 & . * C % @ M e , M V & 1 * & m { c ..",
"O 5 9 N q . . 2 ` O O D 5 9 2 . w *./ b f c # Y L X . @.t 9 a @ , : x 2 O.. . N ` 4 O , $ o ^ h . q 3 A ; M , 4 u = T T < M v @ ",
"a Q # - =   1 1 2 M E y a : g & . w n g f 5.O s m N = 1 @.< m @ 4 O @ o.2 C 8 . 2 Y 4 c c y x & . 1 q 9 @ 5 ` @ $ V < . . = y @ ",
"' O , 2.o 2 C j . 0 O R 9 > O u < . j O.o @ , R ..e V & * 1 = M M c Q ;.` 2 . 1 . 2 m -.f 4 $ L < . T C V 4 : o z 9 N & 8 @.P ~ ",
"x ; f D # ( ^ q 1   N f E s ; e u 2 . 1   3 O O _ , 9 i & * j P 9 p -.@ + 9 2 q 1 t 2 { ; @ @ 5 ` L   .   % Q B R , X.2 X 1 1 O.",
"& M W p , a 9 2   T 1 2 O c R [ f o.2 . 8 q 0 f , m f Y L q * . = ` e O , , u L n w . = } @ E 6 y o X . 1 t 9 f 4 @ H 9 2 q T 8 ",
". & / b @ , z o L t @.1 L - E M b 5 o & . T n u @ ..A > e L & . . P J Z @ O @ J 2 . 1 . N ' I M ; O V < . j X V 4 @ 4 D c % F . ",
"1 w & { @ f v H { i   8 . 0 } r A 6 O o <   1 O.V M r @  .M ^ < . w & R @ O , , ~ 0 X @.. ^ m M e D O V P . 1 q / v M R  .e u q ",
"& * @.& ` ] O v :.( &   T . 2 ' v 4 #.z 0 & * * q 0 M r O @ x N = * w n - @ @ , , ` i . 6.  N R 4 $ $ A % & . j h o @ O A <.$ i ",
"V = . 1 & M O 5 , B o 2 q . . 2 - $ 5 p f V & * @.. 0 p : m 4 c 0 X 8 j & e 6 a 5 ; 9 F . 1 . 2 y b f , f V 2 . * n J 4 4 _ , 9 ",
"$ u 2 @.1 & ~ b ' s , ( 2 C . . & c r M 5 e u & . 8 & 3 O f M <.M i q . 1 X 9 p $ U H m N q 1 . 2 R @ @ 4 c u P . j & % v a m E ",
"2.9 2 & 8 1 & ( 4 M , ! V 2 h 1 T 2 4 r f 4 O 9 2 . 1 q 9 { c O S -.i & . @.& M 5 $ , # 9 ^ . @.T P 4 @ ~ z 5 u 2 . 1   % : f 4 ",
"4 E ` 0 & j | q ~ : @ D v ` F . * 1 0 l E O r 5 o.& T 8 C N 4 # O , Y 2 < @.T 2 $ 4 E , @ ( N t 1 * ^ M M R Q 5 0 & . .   o O s ",
"f f 6 e u = 1 w & M @ Y K %.~ i C 1 . 2 $ ' $ U f o & . 1   u O #.4 , M V X T w & o.@ 4 Z , ` 2 t j . N y 4 y 4 e % 2 . 1 C 0 4 ",
"s Z ; #.J u & w * = M E E O , $ 2 C w . P 5 O l @ ' N & 1 1 t 0 4 d } ! M i F 8 T & e O $ v + 9 P t .   2 4 r f f O o 2 . 1   V ",
"3 @ 4 4 d M 0 & 1 | & m @ $ ] O o.2 X * h N W O 4 , 4 o F . . . 0 O b O H { % & * T P M - { , + R L C j 1 i 4 @ f D 4 x 2   1   ",
". 0 ' O 5 ! y N t @.1 2 { e 4 a s / 2 X j   2 - f v r O u = h * *.u 5 f O B 9 i = . . 2 X.@ E D ..x 2 n 1 . L { $ Y K l % 2 . j ",
"* n o 9 : O + M 2 & 1 1 P X.@ D @ @ m 2 C j . 2 9 O c O M 2 2 1 8 C % e ' 9 , J N P 1 * F $ @ ` : } ` i q w   L X.$ l 4 M 0 < . "
};
